<svg width="109" height="109" viewBox="0 0 109 109" fill="none" xmlns="http://www.w3.org/2000/svg">
<g clip-path="url(#clip0_5_7)">
<path d="M15.1389 66.2326C15.1389 66.2326 19.9501 83.5727 21.1945 91.9142C22.5994 101.334 32.0067 108.782 54.5 108.782C76.9934 108.782 86.4007 101.331 87.8056 91.9142C89.05 83.5727 93.8611 66.2326 93.8611 66.2326H15.1389Z" fill="#BBDDF5"/>
<path d="M15.4235 66.5173C16.1805 70.2081 17.5248 72.5546 19.4929 71.3435C21.4609 70.1324 24.4887 70.7592 23.5622 73.2359C22.7114 75.5067 26.4961 76.5483 28.1039 75.2221C29.645 73.9535 32.812 72.5546 33.1179 75.4098C33.4025 78.0591 36.6543 78.7707 38.1319 76.8299C39.6457 74.8436 43.8089 75.6369 44.5659 78.0591C45.3228 80.4814 49.3922 80.1423 50.5276 78.4376C51.6024 76.8238 52.6864 75.758 54.5 75.758V75.6944C56.3167 75.6944 57.3976 76.8238 58.4725 78.4376C59.6079 80.1392 63.6772 80.4814 64.4342 78.0591C65.1911 75.6369 69.3543 74.8436 70.8682 76.8299C72.3488 78.7707 75.5976 78.0591 75.8822 75.4098C76.188 72.5546 79.355 73.9504 80.8962 75.2221C82.5039 76.5483 86.2887 75.5067 85.4379 73.2359C84.5083 70.7592 87.5391 70.1324 89.5072 71.3435C91.4752 72.5546 92.8196 70.2081 93.5765 66.5173H15.4235Z" fill="#662113"/>
<path d="M99.9166 57.4339C99.9166 42.5403 79.5367 30.4685 54.4001 30.4685C29.2604 30.4685 8.88348 42.5403 8.88348 57.4339C8.88348 69.4512 36.1335 75.6944 54.4001 75.6944C72.6666 75.6944 99.9166 69.6389 99.9166 57.4339Z" fill="#C1694F"/>
<path d="M54.5 107.486C54.0985 107.486 53.7134 107.327 53.4295 107.043C53.1456 106.759 52.9861 106.374 52.9861 105.972V79.7941C52.9861 79.3925 53.1456 79.0075 53.4295 78.7236C53.7134 78.4397 54.0985 78.2802 54.5 78.2802C54.9015 78.2802 55.2866 78.4397 55.5705 78.7236C55.8544 79.0075 56.0139 79.3925 56.0139 79.7941V105.972C56.0139 106.374 55.8544 106.759 55.5705 107.043C55.2866 107.327 54.9015 107.486 54.5 107.486ZM34.2169 103.647C33.8489 103.647 33.4935 103.513 33.2171 103.27C32.9407 103.027 32.7623 102.692 32.7151 102.327L29.5935 78.1591C29.5676 77.9616 29.5809 77.761 29.6326 77.5687C29.6844 77.3764 29.7735 77.1961 29.8951 77.0384C30.0166 76.8806 30.168 76.7483 30.3407 76.6491C30.5134 76.55 30.704 76.4859 30.9015 76.4605C31.0989 76.4337 31.2997 76.4465 31.4921 76.4979C31.6845 76.5494 31.8649 76.6385 32.0226 76.7602C32.1803 76.8819 32.3123 77.0336 32.4109 77.2067C32.5095 77.3798 32.5728 77.5707 32.5971 77.7685L35.7187 101.936C35.7457 102.15 35.7271 102.366 35.664 102.572C35.601 102.778 35.495 102.968 35.353 103.13C35.2111 103.291 35.0364 103.421 34.8405 103.51C34.6447 103.599 34.4321 103.646 34.2169 103.647ZM43.8422 106.602C43.4624 106.602 43.0965 106.459 42.8172 106.201C42.5379 105.944 42.3655 105.591 42.3344 105.212L40.1907 79.4126C40.1744 79.2143 40.1973 79.0149 40.2581 78.8255C40.3189 78.6361 40.4164 78.4606 40.545 78.3089C40.6737 78.1572 40.8309 78.0324 41.0078 77.9415C41.1847 77.8506 41.3777 77.7954 41.5759 77.7791C41.7741 77.7628 41.9736 77.7857 42.163 77.8465C42.3524 77.9072 42.5279 78.0047 42.6796 78.1334C42.8313 78.262 42.9561 78.4192 43.047 78.5961C43.1379 78.773 43.1931 78.9661 43.2094 79.1643L45.3531 104.964C45.3858 105.364 45.2584 105.76 44.9989 106.066C44.7395 106.372 44.3692 106.563 43.9694 106.596L43.8422 106.602ZM25.7997 97.3945C25.5378 97.3941 25.2841 97.3031 25.0816 97.137C24.8791 96.9709 24.7402 96.7399 24.6885 96.4832L20.1468 73.9626C20.1173 73.8166 20.1167 73.6663 20.1453 73.5201C20.1739 73.374 20.2311 73.235 20.3135 73.1109C20.3959 72.9869 20.5019 72.8803 20.6256 72.7974C20.7492 72.7144 20.888 72.6566 21.034 72.6273C21.6335 72.482 22.2451 72.8998 22.3723 73.5144L26.9139 96.0351C26.9477 96.2 26.9442 96.3704 26.9038 96.5339C26.8634 96.6973 26.7871 96.8497 26.6804 96.98C26.5736 97.1102 26.4392 97.215 26.2868 97.2867C26.1345 97.3584 25.9681 97.3952 25.7997 97.3945ZM74.5469 103.305C74.3297 103.305 74.1149 103.259 73.9171 103.169C73.7194 103.079 73.5433 102.948 73.4008 102.784C73.2583 102.62 73.1528 102.427 73.0915 102.219C73.0301 102.01 73.0143 101.791 73.0451 101.576L76.4665 77.7503C76.5287 77.3553 76.7425 77.0001 77.0626 76.7603C77.3827 76.5205 77.7837 76.4151 78.1803 76.4665C78.3771 76.4947 78.5664 76.5614 78.7375 76.6628C78.9085 76.7642 79.0579 76.8983 79.1771 77.0575C79.2963 77.2166 79.383 77.3977 79.4323 77.5903C79.4815 77.783 79.4923 77.9834 79.464 78.1802L76.0426 102.006C75.991 102.366 75.8114 102.695 75.5367 102.934C75.2621 103.172 74.9107 103.304 74.5469 103.305ZM65.3364 106.602L65.2093 106.596C64.8095 106.563 64.4392 106.372 64.1797 106.066C63.9203 105.76 63.7929 105.364 63.8256 104.964L65.9692 79.1643C66.0358 78.3286 66.8533 77.7291 67.6012 77.7806C68.001 77.8138 68.3713 78.0043 68.6307 78.3103C68.8902 78.6163 69.0176 79.0127 68.9849 79.4126L66.8412 105.212C66.8101 105.59 66.6382 105.943 66.3596 106.2C66.0809 106.458 65.7158 106.601 65.3364 106.602ZM83.4516 97.5187C83.2845 97.519 83.1193 97.4824 82.968 97.4114C82.8168 97.3404 82.6831 97.2367 82.5765 97.1079C82.47 96.9791 82.3933 96.8284 82.352 96.6664C82.3107 96.5045 82.3057 96.3354 82.3374 96.1713L86.6913 73.5266C86.7192 73.3802 86.7756 73.2408 86.8573 73.1163C86.939 72.9918 87.0444 72.8845 87.1676 72.8008C87.2907 72.717 87.4291 72.6583 87.575 72.628C87.7208 72.5977 87.8712 72.5964 88.0175 72.6243C88.1638 72.6521 88.3032 72.7085 88.4278 72.7902C88.5523 72.8719 88.6595 72.9773 88.7433 73.1005C88.8271 73.2236 88.8858 73.3621 88.9161 73.5079C88.9464 73.6538 88.9476 73.8041 88.9198 73.9504L84.5658 96.5952C84.5171 96.855 84.379 97.0895 84.1755 97.2581C83.972 97.4268 83.7159 97.519 83.4516 97.5187Z" fill="#88C9F9"/>
<path d="M51.2058 -0.0333061C51.2058 -0.0333061 54.4969 3.43047 57.7912 3.50011C64.6582 3.64847 70.9771 7.48164 70.9771 14.1155C70.9771 14.1155 86.9063 14.1155 87.4573 28.2673C87.4573 28.2673 95.4961 28.4036 97.337 42.4131C98.7116 52.8771 88.1386 67.3226 54.5 67.1743C24.8429 67.0441 9.6707 56.5044 11.663 42.4192C13.5826 28.8547 24.8459 28.2704 24.8459 28.2704C24.8459 28.2704 22.9203 10.5791 44.6143 10.5821C44.6143 10.5821 46.8124 3.50617 51.2058 -0.0333061Z" fill="#FFE8B6"/>
<path d="M54.2275 31.8038C63.1171 28.449 71.2527 22.3723 70.9802 14.1185C70.9802 11.5207 69.9901 9.37097 68.4005 7.6845C70.3474 16.1865 57.3461 25.8512 42.9702 27.3832C24.9822 29.2998 27.0411 18.6874 27.0411 18.6874L27.0199 18.7086C24.3464 23.3593 24.849 28.2734 24.849 28.2734C27.5891 35.4886 41.7319 36.5211 54.2275 31.8038Z" fill="#FFCC4D"/>
<path d="M87.4574 28.2704C87.4392 27.8374 87.3665 27.4589 87.3211 27.0532C86.9699 25.0034 85.9495 22.4934 84.9776 20.5798C84.4023 19.7785 83.7665 19.07 83.0701 18.4543C86.4279 31.8553 66.2266 47.9721 46.9487 51.7054C21.8212 56.568 11.663 42.4252 11.663 42.4252C10.6275 49.7373 14.2608 56.0775 22.1058 60.5192C53.0709 73.142 87.7268 42.0649 87.4574 28.2704Z" fill="#FFCC4D"/>
<path d="M26.3083 42.9975L22.7325 47.8843C22.2566 48.5305 21.5442 48.962 20.751 49.0846C19.9579 49.2071 19.1485 49.0107 18.4997 48.5383C17.8535 48.0624 17.422 47.35 17.2994 46.5568C17.1769 45.7637 17.3733 44.9543 17.8457 44.3055L21.4215 39.4186C21.8974 38.7724 22.6098 38.3409 23.403 38.2184C24.1961 38.0958 25.0055 38.2922 25.6543 38.7646C26.9987 39.7487 27.2924 41.6531 26.3083 42.9975Z" fill="#DD2E44"/>
<path d="M45.2199 24.7884L39.2975 23.5198C38.5127 23.3513 37.8269 22.8781 37.3908 22.2042C36.9548 21.5302 36.8042 20.7107 36.9722 19.9258C37.3204 18.2969 38.9403 17.2493 40.5662 17.6005L46.4885 18.8691C48.1175 19.2173 49.1651 20.8372 48.8138 22.4631C48.6454 23.2479 48.1722 23.9337 47.4982 24.3698C46.8243 24.8058 46.0048 24.9564 45.2199 24.7884Z" fill="#55ACEE"/>
<path d="M49.7494 42.9127L53.7249 47.4816C54.8179 48.7381 54.6847 50.6608 53.4281 51.7538C52.8213 52.2788 52.0313 52.5423 51.2308 52.4867C50.4304 52.4311 49.6844 52.0609 49.156 51.4571L45.1805 46.8882C44.6555 46.2813 44.392 45.4914 44.4476 44.6909C44.5032 43.8904 44.8734 43.1444 45.4772 42.616C46.0841 42.091 46.874 41.8275 47.6745 41.8831C48.475 41.9387 49.221 42.3089 49.7494 42.9127Z" fill="#77B255"/>
<path d="M73.793 34.8164L68.128 36.9571C67.3766 37.2385 66.5444 37.2111 65.8132 36.8809C65.0819 36.5508 64.511 35.9446 64.2252 35.1949C63.9438 34.4435 63.9712 33.6113 64.3013 32.88C64.6315 32.1488 65.2377 31.5779 65.9874 31.2921L71.6524 29.1514C72.4037 28.87 73.2359 28.8974 73.9672 29.2276C74.6985 29.5577 75.2694 30.1639 75.5552 30.9136C75.8366 31.665 75.8092 32.4972 75.479 33.2285C75.1489 33.9597 74.5427 34.5306 73.793 34.8164Z" fill="#F4900C"/>
<path d="M91.9415 42.5433L88.9137 47.7874C88.0811 49.2286 86.219 49.7282 84.7778 48.8956C84.0842 48.4924 83.5784 47.8311 83.3707 47.0561C83.1631 46.2812 83.2706 45.4556 83.6696 44.7596L86.6974 39.5155C87.53 38.0743 89.3921 37.5747 90.8333 38.4074C92.2745 39.24 92.7741 41.0991 91.9415 42.5433Z" fill="#AA8DD8"/>
</g>
<defs>
<clipPath id="clip0_5_7">
<rect width="109" height="109" fill="white"/>
</clipPath>
</defs>
</svg>
